<svg xmlns="http://www.w3.org/2000/svg" viewBox="0 0 32 32">
  <circle cx="16" cy="16" r="16" fill="black"/>
  <path d="M24.8 19.46c1.54-.42 3-1.18 3-2.26 0-1.08-1.46-1.84-3-2.26-.03-.33-.06-.66-.11-1-.41-2.46-1.67-4.25-3.83-5.33-2.16-1.08-6.49-1.08-8.65 0-2.16 1.08-3.42 2.87-3.83 5.33-.05.34-.08.67-.11 1-1.54.42-3 1.18-3 2.26 0 1.08 1.46 1.84 3 2.26.03.33.06.66.11 1 .41 2.46 1.67 4.25 3.83 5.33 2.16 1.08 6.49 1.08 8.65 0 2.16-1.08 3.42-2.87 3.83-5.33.05-.34.08-.67.11-1zM17 9c2.7 0 4.86 1.08 5.94 2.7 1.08 1.62 1.08 3.78 1.08 5.4 0 .54-.11 1.08-.32 1.51-1.51-.54-4-1-6.7-1-2.7 0-5.18.43-6.69.97-.22-.43-.31-.97-.31-1.51 0-1.62 0-3.78 1.08-5.4 1.08-1.62 3.24-2.7 5.94-2.7z" fill="white"/>
</svg>
